<mxfile host="app.diagrams.net" modified="2021-12-06T09:20:12.800Z" agent="5.0 (Windows NT 10.0; Win64; x64) AppleWebKit/537.36 (KHTML, like Gecko) Chrome/96.0.4664.45 Safari/537.36" etag="kkTXvqKMccZyEiDDoklq" version="15.9.1" type="github">
  <diagram id="C5RBs43oDa-KdzZeNtuy" name="Page-1">
    <mxGraphModel dx="2500" dy="2027" grid="1" gridSize="10" guides="1" tooltips="1" connect="1" arrows="1" fold="1" page="1" pageScale="1" pageWidth="827" pageHeight="1169" math="0" shadow="0">
      <root>
        <mxCell id="WIyWlLk6GJQsqaUBKTNV-0" />
        <mxCell id="WIyWlLk6GJQsqaUBKTNV-1" parent="WIyWlLk6GJQsqaUBKTNV-0" />
        <mxCell id="7B_NgsGr2W2Y_Mld3y6d-8" style="edgeStyle=orthogonalEdgeStyle;rounded=0;orthogonalLoop=1;jettySize=auto;html=1;entryX=0.5;entryY=0;entryDx=0;entryDy=0;" parent="WIyWlLk6GJQsqaUBKTNV-1" source="7B_NgsGr2W2Y_Mld3y6d-0" target="7B_NgsGr2W2Y_Mld3y6d-1" edge="1">
          <mxGeometry relative="1" as="geometry" />
        </mxCell>
        <mxCell id="7B_NgsGr2W2Y_Mld3y6d-0" value="text = &quot; &quot;&lt;br&gt;status = &quot;200&quot;" style="shape=parallelogram;perimeter=parallelogramPerimeter;whiteSpace=wrap;html=1;fixedSize=1;" parent="WIyWlLk6GJQsqaUBKTNV-1" vertex="1">
          <mxGeometry x="340" y="-280" width="120" height="40" as="geometry" />
        </mxCell>
        <mxCell id="7B_NgsGr2W2Y_Mld3y6d-19" value="" style="edgeStyle=orthogonalEdgeStyle;rounded=0;orthogonalLoop=1;jettySize=auto;html=1;entryX=0.5;entryY=0;entryDx=0;entryDy=0;" parent="WIyWlLk6GJQsqaUBKTNV-1" source="7B_NgsGr2W2Y_Mld3y6d-1" target="7B_NgsGr2W2Y_Mld3y6d-33" edge="1">
          <mxGeometry relative="1" as="geometry">
            <mxPoint x="240" y="-160" as="targetPoint" />
          </mxGeometry>
        </mxCell>
        <mxCell id="7B_NgsGr2W2Y_Mld3y6d-54" value="" style="edgeStyle=orthogonalEdgeStyle;rounded=0;orthogonalLoop=1;jettySize=auto;html=1;" parent="WIyWlLk6GJQsqaUBKTNV-1" source="7B_NgsGr2W2Y_Mld3y6d-1" target="7B_NgsGr2W2Y_Mld3y6d-53" edge="1">
          <mxGeometry relative="1" as="geometry" />
        </mxCell>
        <mxCell id="7B_NgsGr2W2Y_Mld3y6d-1" value="Post" style="rhombus;whiteSpace=wrap;html=1;" parent="WIyWlLk6GJQsqaUBKTNV-1" vertex="1">
          <mxGeometry x="360" y="-200" width="80" height="80" as="geometry" />
        </mxCell>
        <mxCell id="7B_NgsGr2W2Y_Mld3y6d-15" value="" style="edgeStyle=orthogonalEdgeStyle;rounded=0;orthogonalLoop=1;jettySize=auto;html=1;" parent="WIyWlLk6GJQsqaUBKTNV-1" edge="1">
          <mxGeometry relative="1" as="geometry">
            <mxPoint x="235" y="-160" as="sourcePoint" />
            <mxPoint x="235" y="-160" as="targetPoint" />
          </mxGeometry>
        </mxCell>
        <mxCell id="7B_NgsGr2W2Y_Mld3y6d-39" style="edgeStyle=orthogonalEdgeStyle;rounded=0;orthogonalLoop=1;jettySize=auto;html=1;entryX=0.661;entryY=0.023;entryDx=0;entryDy=0;entryPerimeter=0;" parent="WIyWlLk6GJQsqaUBKTNV-1" source="7B_NgsGr2W2Y_Mld3y6d-11" target="7B_NgsGr2W2Y_Mld3y6d-22" edge="1">
          <mxGeometry relative="1" as="geometry" />
        </mxCell>
        <mxCell id="7B_NgsGr2W2Y_Mld3y6d-11" value="Поместить&lt;br&gt;&amp;nbsp;сообщение&lt;br&gt;&amp;nbsp;в конец каждой индивидуальной&lt;br&gt;&amp;nbsp;очереди" style="shape=parallelogram;perimeter=parallelogramPerimeter;whiteSpace=wrap;html=1;fixedSize=1;" parent="WIyWlLk6GJQsqaUBKTNV-1" vertex="1">
          <mxGeometry x="170" y="120" width="150" height="80" as="geometry" />
        </mxCell>
        <mxCell id="7B_NgsGr2W2Y_Mld3y6d-21" value="Да" style="text;html=1;align=center;verticalAlign=middle;resizable=0;points=[];autosize=1;strokeColor=none;fillColor=none;" parent="WIyWlLk6GJQsqaUBKTNV-1" vertex="1">
          <mxGeometry x="275" y="-180" width="30" height="20" as="geometry" />
        </mxCell>
        <mxCell id="7B_NgsGr2W2Y_Mld3y6d-22" value="resp = &lt;br&gt;new Resp(text, status)" style="shape=parallelogram;perimeter=parallelogramPerimeter;whiteSpace=wrap;html=1;fixedSize=1;" parent="WIyWlLk6GJQsqaUBKTNV-1" vertex="1">
          <mxGeometry x="150" y="240" width="150" height="80" as="geometry" />
        </mxCell>
        <mxCell id="7B_NgsGr2W2Y_Mld3y6d-33" value="Послать запрос на добавление данных с указанием топика и значением" style="shape=parallelogram;perimeter=parallelogramPerimeter;whiteSpace=wrap;html=1;fixedSize=1;" parent="WIyWlLk6GJQsqaUBKTNV-1" vertex="1">
          <mxGeometry x="170" y="-120" width="150" height="80" as="geometry" />
        </mxCell>
        <mxCell id="7B_NgsGr2W2Y_Mld3y6d-37" style="edgeStyle=orthogonalEdgeStyle;rounded=0;orthogonalLoop=1;jettySize=auto;html=1;" parent="WIyWlLk6GJQsqaUBKTNV-1" source="7B_NgsGr2W2Y_Mld3y6d-33" edge="1">
          <mxGeometry relative="1" as="geometry">
            <mxPoint x="245" y="-39.99999999999977" as="sourcePoint" />
            <mxPoint x="245" as="targetPoint" />
          </mxGeometry>
        </mxCell>
        <mxCell id="7B_NgsGr2W2Y_Mld3y6d-43" value="" style="edgeStyle=orthogonalEdgeStyle;rounded=0;orthogonalLoop=1;jettySize=auto;html=1;" parent="WIyWlLk6GJQsqaUBKTNV-1" source="7B_NgsGr2W2Y_Mld3y6d-40" edge="1">
          <mxGeometry relative="1" as="geometry">
            <mxPoint x="245" y="120" as="targetPoint" />
          </mxGeometry>
        </mxCell>
        <mxCell id="7B_NgsGr2W2Y_Mld3y6d-52" style="edgeStyle=orthogonalEdgeStyle;rounded=0;orthogonalLoop=1;jettySize=auto;html=1;" parent="WIyWlLk6GJQsqaUBKTNV-1" source="7B_NgsGr2W2Y_Mld3y6d-40" target="7B_NgsGr2W2Y_Mld3y6d-48" edge="1">
          <mxGeometry relative="1" as="geometry" />
        </mxCell>
        <mxCell id="7B_NgsGr2W2Y_Mld3y6d-40" value="Топик есть" style="rhombus;whiteSpace=wrap;html=1;" parent="WIyWlLk6GJQsqaUBKTNV-1" vertex="1">
          <mxGeometry x="205" width="80" height="80" as="geometry" />
        </mxCell>
        <mxCell id="7B_NgsGr2W2Y_Mld3y6d-44" value="Да" style="text;html=1;align=center;verticalAlign=middle;resizable=0;points=[];autosize=1;strokeColor=none;fillColor=none;" parent="WIyWlLk6GJQsqaUBKTNV-1" vertex="1">
          <mxGeometry x="245" y="90" width="30" height="20" as="geometry" />
        </mxCell>
        <mxCell id="7B_NgsGr2W2Y_Mld3y6d-48" value="resp = &lt;br&gt;new Resp(text, &quot;240&quot;)" style="shape=parallelogram;perimeter=parallelogramPerimeter;whiteSpace=wrap;html=1;fixedSize=1;" parent="WIyWlLk6GJQsqaUBKTNV-1" vertex="1">
          <mxGeometry x="-110" y="120" width="170" height="90" as="geometry" />
        </mxCell>
        <mxCell id="7B_NgsGr2W2Y_Mld3y6d-51" value="Нет" style="text;html=1;align=center;verticalAlign=middle;resizable=0;points=[];autosize=1;strokeColor=none;fillColor=none;" parent="WIyWlLk6GJQsqaUBKTNV-1" vertex="1">
          <mxGeometry x="130" y="20" width="40" height="20" as="geometry" />
        </mxCell>
        <mxCell id="7B_NgsGr2W2Y_Mld3y6d-62" style="edgeStyle=orthogonalEdgeStyle;rounded=0;orthogonalLoop=1;jettySize=auto;html=1;entryX=0.5;entryY=0;entryDx=0;entryDy=0;" parent="WIyWlLk6GJQsqaUBKTNV-1" source="7B_NgsGr2W2Y_Mld3y6d-53" target="7B_NgsGr2W2Y_Mld3y6d-66" edge="1">
          <mxGeometry relative="1" as="geometry">
            <mxPoint x="739.96" y="-120" as="targetPoint" />
          </mxGeometry>
        </mxCell>
        <mxCell id="7B_NgsGr2W2Y_Mld3y6d-53" value="GET" style="rhombus;whiteSpace=wrap;html=1;" parent="WIyWlLk6GJQsqaUBKTNV-1" vertex="1">
          <mxGeometry x="510" y="-200" width="100" height="80" as="geometry" />
        </mxCell>
        <mxCell id="7B_NgsGr2W2Y_Mld3y6d-60" value="&lt;br&gt;Нет" style="text;html=1;align=center;verticalAlign=middle;resizable=0;points=[];autosize=1;strokeColor=none;fillColor=none;" parent="WIyWlLk6GJQsqaUBKTNV-1" vertex="1">
          <mxGeometry x="450" y="-195" width="40" height="30" as="geometry" />
        </mxCell>
        <mxCell id="7B_NgsGr2W2Y_Mld3y6d-63" value="Да" style="text;html=1;align=center;verticalAlign=middle;resizable=0;points=[];autosize=1;strokeColor=none;fillColor=none;" parent="WIyWlLk6GJQsqaUBKTNV-1" vertex="1">
          <mxGeometry x="665" y="-180" width="30" height="20" as="geometry" />
        </mxCell>
        <mxCell id="7B_NgsGr2W2Y_Mld3y6d-69" value="" style="edgeStyle=orthogonalEdgeStyle;rounded=0;orthogonalLoop=1;jettySize=auto;html=1;entryX=0.5;entryY=0;entryDx=0;entryDy=0;" parent="WIyWlLk6GJQsqaUBKTNV-1" source="7B_NgsGr2W2Y_Mld3y6d-66" target="7B_NgsGr2W2Y_Mld3y6d-67" edge="1">
          <mxGeometry relative="1" as="geometry">
            <mxPoint x="715" y="39.99999999999977" as="targetPoint" />
          </mxGeometry>
        </mxCell>
        <mxCell id="7B_NgsGr2W2Y_Mld3y6d-66" value="Послать запрос на поучение данных с указанием топика&amp;nbsp;" style="shape=parallelogram;perimeter=parallelogramPerimeter;whiteSpace=wrap;html=1;fixedSize=1;" parent="WIyWlLk6GJQsqaUBKTNV-1" vertex="1">
          <mxGeometry x="640" y="-120" width="150" height="80" as="geometry" />
        </mxCell>
        <mxCell id="7B_NgsGr2W2Y_Mld3y6d-71" style="edgeStyle=orthogonalEdgeStyle;rounded=0;orthogonalLoop=1;jettySize=auto;html=1;entryX=0.5;entryY=0;entryDx=0;entryDy=0;" parent="WIyWlLk6GJQsqaUBKTNV-1" source="7B_NgsGr2W2Y_Mld3y6d-67" target="7B_NgsGr2W2Y_Mld3y6d-70" edge="1">
          <mxGeometry relative="1" as="geometry" />
        </mxCell>
        <mxCell id="nt9oDOgV86cSaoxMU8eS-2" style="edgeStyle=orthogonalEdgeStyle;rounded=0;orthogonalLoop=1;jettySize=auto;html=1;" edge="1" parent="WIyWlLk6GJQsqaUBKTNV-1" source="7B_NgsGr2W2Y_Mld3y6d-67">
          <mxGeometry relative="1" as="geometry">
            <mxPoint x="880" y="120" as="targetPoint" />
          </mxGeometry>
        </mxCell>
        <mxCell id="7B_NgsGr2W2Y_Mld3y6d-67" value="Топик есть" style="rhombus;whiteSpace=wrap;html=1;" parent="WIyWlLk6GJQsqaUBKTNV-1" vertex="1">
          <mxGeometry x="675" width="80" height="80" as="geometry" />
        </mxCell>
        <mxCell id="7B_NgsGr2W2Y_Mld3y6d-82" style="edgeStyle=orthogonalEdgeStyle;rounded=0;orthogonalLoop=1;jettySize=auto;html=1;entryX=0.566;entryY=0.013;entryDx=0;entryDy=0;entryPerimeter=0;" parent="WIyWlLk6GJQsqaUBKTNV-1" source="7B_NgsGr2W2Y_Mld3y6d-70" target="7B_NgsGr2W2Y_Mld3y6d-81" edge="1">
          <mxGeometry relative="1" as="geometry" />
        </mxCell>
        <mxCell id="7B_NgsGr2W2Y_Mld3y6d-70" value="Создать топик и &lt;br&gt;создать индивидуальную очередь" style="shape=parallelogram;perimeter=parallelogramPerimeter;whiteSpace=wrap;html=1;fixedSize=1;" parent="WIyWlLk6GJQsqaUBKTNV-1" vertex="1">
          <mxGeometry x="460" y="120" width="140" height="80" as="geometry" />
        </mxCell>
        <mxCell id="7B_NgsGr2W2Y_Mld3y6d-72" value="Нет" style="text;html=1;align=center;verticalAlign=middle;resizable=0;points=[];autosize=1;strokeColor=none;fillColor=none;" parent="WIyWlLk6GJQsqaUBKTNV-1" vertex="1">
          <mxGeometry x="590" y="20" width="40" height="20" as="geometry" />
        </mxCell>
        <mxCell id="7B_NgsGr2W2Y_Mld3y6d-79" style="edgeStyle=orthogonalEdgeStyle;rounded=0;orthogonalLoop=1;jettySize=auto;html=1;entryX=0.5;entryY=0;entryDx=0;entryDy=0;" parent="WIyWlLk6GJQsqaUBKTNV-1" source="7B_NgsGr2W2Y_Mld3y6d-75" target="7B_NgsGr2W2Y_Mld3y6d-78" edge="1">
          <mxGeometry relative="1" as="geometry" />
        </mxCell>
        <mxCell id="7B_NgsGr2W2Y_Mld3y6d-75" value="Получить &lt;br&gt;сообщение &lt;br&gt;из индивидуальной очереди" style="shape=parallelogram;perimeter=parallelogramPerimeter;whiteSpace=wrap;html=1;fixedSize=1;" parent="WIyWlLk6GJQsqaUBKTNV-1" vertex="1">
          <mxGeometry x="1000" y="360" width="140" height="80" as="geometry" />
        </mxCell>
        <mxCell id="7B_NgsGr2W2Y_Mld3y6d-78" value="resp =&amp;nbsp;&lt;br&gt;new Resp(text, status)" style="shape=parallelogram;perimeter=parallelogramPerimeter;whiteSpace=wrap;html=1;fixedSize=1;" parent="WIyWlLk6GJQsqaUBKTNV-1" vertex="1">
          <mxGeometry x="990" y="480" width="160" height="80" as="geometry" />
        </mxCell>
        <mxCell id="7B_NgsGr2W2Y_Mld3y6d-80" value="Да" style="text;html=1;align=center;verticalAlign=middle;resizable=0;points=[];autosize=1;strokeColor=none;fillColor=none;" parent="WIyWlLk6GJQsqaUBKTNV-1" vertex="1">
          <mxGeometry x="815" y="20" width="30" height="20" as="geometry" />
        </mxCell>
        <mxCell id="7B_NgsGr2W2Y_Mld3y6d-81" value="resp =&amp;nbsp;&lt;br&gt;new Resp(text, status)" style="shape=parallelogram;perimeter=parallelogramPerimeter;whiteSpace=wrap;html=1;fixedSize=1;" parent="WIyWlLk6GJQsqaUBKTNV-1" vertex="1">
          <mxGeometry x="440" y="240" width="160" height="80" as="geometry" />
        </mxCell>
        <mxCell id="nt9oDOgV86cSaoxMU8eS-4" style="edgeStyle=orthogonalEdgeStyle;rounded=0;orthogonalLoop=1;jettySize=auto;html=1;" edge="1" parent="WIyWlLk6GJQsqaUBKTNV-1" source="nt9oDOgV86cSaoxMU8eS-3" target="7B_NgsGr2W2Y_Mld3y6d-75">
          <mxGeometry relative="1" as="geometry" />
        </mxCell>
        <mxCell id="nt9oDOgV86cSaoxMU8eS-7" style="edgeStyle=orthogonalEdgeStyle;rounded=0;orthogonalLoop=1;jettySize=auto;html=1;entryX=0.5;entryY=0;entryDx=0;entryDy=0;" edge="1" parent="WIyWlLk6GJQsqaUBKTNV-1" source="nt9oDOgV86cSaoxMU8eS-3" target="nt9oDOgV86cSaoxMU8eS-6">
          <mxGeometry relative="1" as="geometry">
            <Array as="points">
              <mxPoint x="765" y="280" />
            </Array>
          </mxGeometry>
        </mxCell>
        <mxCell id="nt9oDOgV86cSaoxMU8eS-3" value="Очередь пуста" style="rhombus;whiteSpace=wrap;html=1;" vertex="1" parent="WIyWlLk6GJQsqaUBKTNV-1">
          <mxGeometry x="840" y="240" width="80" height="80" as="geometry" />
        </mxCell>
        <mxCell id="nt9oDOgV86cSaoxMU8eS-5" value="Нет" style="text;html=1;align=center;verticalAlign=middle;resizable=0;points=[];autosize=1;strokeColor=none;fillColor=none;" vertex="1" parent="WIyWlLk6GJQsqaUBKTNV-1">
          <mxGeometry x="960" y="260" width="40" height="20" as="geometry" />
        </mxCell>
        <mxCell id="nt9oDOgV86cSaoxMU8eS-6" value="&lt;span&gt;resp =&amp;nbsp;&lt;/span&gt;&lt;br&gt;&lt;span&gt;new Resp(text, &quot;240&quot;)&lt;/span&gt;" style="shape=parallelogram;perimeter=parallelogramPerimeter;whiteSpace=wrap;html=1;fixedSize=1;" vertex="1" parent="WIyWlLk6GJQsqaUBKTNV-1">
          <mxGeometry x="690" y="360" width="150" height="80" as="geometry" />
        </mxCell>
        <mxCell id="nt9oDOgV86cSaoxMU8eS-8" value="Да" style="text;html=1;align=center;verticalAlign=middle;resizable=0;points=[];autosize=1;strokeColor=none;fillColor=none;" vertex="1" parent="WIyWlLk6GJQsqaUBKTNV-1">
          <mxGeometry x="785" y="260" width="30" height="20" as="geometry" />
        </mxCell>
        <mxCell id="nt9oDOgV86cSaoxMU8eS-19" style="edgeStyle=orthogonalEdgeStyle;rounded=0;orthogonalLoop=1;jettySize=auto;html=1;entryX=0.5;entryY=0;entryDx=0;entryDy=0;" edge="1" parent="WIyWlLk6GJQsqaUBKTNV-1" source="nt9oDOgV86cSaoxMU8eS-18" target="nt9oDOgV86cSaoxMU8eS-3">
          <mxGeometry relative="1" as="geometry" />
        </mxCell>
        <mxCell id="nt9oDOgV86cSaoxMU8eS-22" style="edgeStyle=orthogonalEdgeStyle;rounded=0;orthogonalLoop=1;jettySize=auto;html=1;" edge="1" parent="WIyWlLk6GJQsqaUBKTNV-1" source="nt9oDOgV86cSaoxMU8eS-18" target="nt9oDOgV86cSaoxMU8eS-21">
          <mxGeometry relative="1" as="geometry" />
        </mxCell>
        <mxCell id="nt9oDOgV86cSaoxMU8eS-18" value="Очередь&lt;br&gt;есть" style="rhombus;whiteSpace=wrap;html=1;" vertex="1" parent="WIyWlLk6GJQsqaUBKTNV-1">
          <mxGeometry x="840" y="120" width="80" height="80" as="geometry" />
        </mxCell>
        <mxCell id="nt9oDOgV86cSaoxMU8eS-20" value="Да" style="text;html=1;align=center;verticalAlign=middle;resizable=0;points=[];autosize=1;strokeColor=none;fillColor=none;" vertex="1" parent="WIyWlLk6GJQsqaUBKTNV-1">
          <mxGeometry x="875" y="200" width="30" height="20" as="geometry" />
        </mxCell>
        <mxCell id="nt9oDOgV86cSaoxMU8eS-25" style="edgeStyle=orthogonalEdgeStyle;rounded=0;orthogonalLoop=1;jettySize=auto;html=1;" edge="1" parent="WIyWlLk6GJQsqaUBKTNV-1" source="nt9oDOgV86cSaoxMU8eS-21" target="nt9oDOgV86cSaoxMU8eS-24">
          <mxGeometry relative="1" as="geometry" />
        </mxCell>
        <mxCell id="nt9oDOgV86cSaoxMU8eS-21" value="Создать очередь" style="shape=parallelogram;perimeter=parallelogramPerimeter;whiteSpace=wrap;html=1;fixedSize=1;" vertex="1" parent="WIyWlLk6GJQsqaUBKTNV-1">
          <mxGeometry x="990" y="130" width="120" height="60" as="geometry" />
        </mxCell>
        <mxCell id="nt9oDOgV86cSaoxMU8eS-23" value="Нет" style="text;html=1;align=center;verticalAlign=middle;resizable=0;points=[];autosize=1;strokeColor=none;fillColor=none;" vertex="1" parent="WIyWlLk6GJQsqaUBKTNV-1">
          <mxGeometry x="940" y="140" width="40" height="20" as="geometry" />
        </mxCell>
        <mxCell id="nt9oDOgV86cSaoxMU8eS-24" value="&lt;span&gt;resp =&amp;nbsp;&lt;/span&gt;&lt;br&gt;&lt;span&gt;new Resp(text, status)&lt;/span&gt;" style="shape=parallelogram;perimeter=parallelogramPerimeter;whiteSpace=wrap;html=1;fixedSize=1;" vertex="1" parent="WIyWlLk6GJQsqaUBKTNV-1">
          <mxGeometry x="1170" y="130" width="120" height="60" as="geometry" />
        </mxCell>
      </root>
    </mxGraphModel>
  </diagram>
</mxfile>
